<?xml version="1.0" encoding="UTF-8" standalone="no"?><svg xmlns="http://www.w3.org/2000/svg" xmlns:xlink="http://www.w3.org/1999/xlink" clip-rule="evenodd" stroke-miterlimit="10" viewBox="0 0 1024 768"><desc>SVG generated by Keynote</desc><defs></defs><g transform="matrix(1.00, 0.00, -0.00, -1.00, 0.0, 768.0)"><path d="M 0.0 768.0 L 1024.0 768.0 L 1024.0 0.0 L 0.0 0.0 Z M 0.0 768.0 " fill="#FEFFFF"></path><text xml:space="preserve" font-family="FiraMono-Regular,Fira Mono" font-size="22.0" fill="#000000" transform="matrix(1.00, 0.00, -0.00, -1.00, 17.0, 670.2)">f</text><text xml:space="preserve" font-family="FiraMono-Regular,Fira Mono" font-size="22.0" fill="#000000" transform="matrix(1.00, 0.00, -0.00, -1.00, 30.2, 670.2)">u</text><text xml:space="preserve" font-family="FiraMono-Regular,Fira Mono" font-size="22.0" fill="#000000" transform="matrix(1.00, 0.00, -0.00, -1.00, 43.4, 670.2)">n</text><text xml:space="preserve" font-family="FiraMono-Regular,Fira Mono" font-size="22.0" fill="#000000" transform="matrix(1.00, 0.00, -0.00, -1.00, 56.6, 670.2)">c</text><text xml:space="preserve" font-family="FiraMono-Regular,Fira Mono" font-size="22.0" fill="#000000" transform="matrix(1.00, 0.00, -0.00, -1.00, 69.8, 670.2)"> </text><text xml:space="preserve" font-family="FiraMono-Regular,Fira Mono" font-size="22.0" fill="#000000" transform="matrix(1.00, 0.00, -0.00, -1.00, 83.0, 670.2)">f</text><text xml:space="preserve" font-family="FiraMono-Regular,Fira Mono" font-size="22.0" fill="#000000" transform="matrix(1.00, 0.00, -0.00, -1.00, 96.2, 670.2)">o</text><text xml:space="preserve" font-family="FiraMono-Regular,Fira Mono" font-size="22.0" fill="#000000" transform="matrix(1.00, 0.00, -0.00, -1.00, 109.4, 670.2)">o</text><text xml:space="preserve" font-family="FiraMono-Regular,Fira Mono" font-size="22.0" fill="#000000" transform="matrix(1.00, 0.00, -0.00, -1.00, 122.6, 670.2)">(</text><text xml:space="preserve" font-family="FiraMono-Regular,Fira Mono" font-size="22.0" fill="#000000" transform="matrix(1.00, 0.00, -0.00, -1.00, 135.8, 670.2)">a</text><text xml:space="preserve" font-family="FiraMono-Regular,Fira Mono" font-size="22.0" fill="#000000" transform="matrix(1.00, 0.00, -0.00, -1.00, 149.0, 670.2)">,</text><text xml:space="preserve" font-family="FiraMono-Regular,Fira Mono" font-size="22.0" fill="#000000" transform="matrix(1.00, 0.00, -0.00, -1.00, 162.2, 670.2)"> </text><text xml:space="preserve" font-family="FiraMono-Regular,Fira Mono" font-size="22.0" fill="#000000" transform="matrix(1.00, 0.00, -0.00, -1.00, 175.4, 670.2)">b</text><text xml:space="preserve" font-family="FiraMono-Regular,Fira Mono" font-size="22.0" fill="#000000" transform="matrix(1.00, 0.00, -0.00, -1.00, 188.6, 670.2)"> </text><text xml:space="preserve" font-family="FiraMono-Regular,Fira Mono" font-size="22.0" fill="#000000" transform="matrix(1.00, 0.00, -0.00, -1.00, 201.8, 670.2)">i</text><text xml:space="preserve" font-family="FiraMono-Regular,Fira Mono" font-size="22.0" fill="#000000" transform="matrix(1.00, 0.00, -0.00, -1.00, 215.0, 670.2)">n</text><text xml:space="preserve" font-family="FiraMono-Regular,Fira Mono" font-size="22.0" fill="#000000" transform="matrix(1.00, 0.00, -0.00, -1.00, 228.2, 670.2)">t</text><text xml:space="preserve" font-family="FiraMono-Regular,Fira Mono" font-size="22.0" fill="#000000" transform="matrix(1.00, 0.00, -0.00, -1.00, 241.4, 670.2)">)</text><text xml:space="preserve" font-family="FiraMono-Regular,Fira Mono" font-size="22.0" fill="#000000" transform="matrix(1.00, 0.00, -0.00, -1.00, 254.6, 670.2)"> </text><text xml:space="preserve" font-family="FiraMono-Regular,Fira Mono" font-size="22.0" fill="#000000" transform="matrix(1.00, 0.00, -0.00, -1.00, 267.8, 670.2)">i</text><text xml:space="preserve" font-family="FiraMono-Regular,Fira Mono" font-size="22.0" fill="#000000" transform="matrix(1.00, 0.00, -0.00, -1.00, 281.0, 670.2)">n</text><text xml:space="preserve" font-family="FiraMono-Regular,Fira Mono" font-size="22.0" fill="#000000" transform="matrix(1.00, 0.00, -0.00, -1.00, 294.2, 670.2)">t</text><text xml:space="preserve" font-family="FiraMono-Regular,Fira Mono" font-size="22.0" fill="#000000" transform="matrix(1.00, 0.00, -0.00, -1.00, 307.4, 670.2)"> </text><text xml:space="preserve" font-family="FiraMono-Regular,Fira Mono" font-size="22.0" fill="#000000" transform="matrix(1.00, 0.00, -0.00, -1.00, 320.6, 670.2)">{</text><text xml:space="preserve" font-family="FiraMono-Regular,Fira Mono" font-size="22.0" fill="#000000" transform="matrix(1.00, 0.00, -0.00, -1.00, 333.8, 670.2)"> </text><text xml:space="preserve" font-family="FiraMono-Regular,Fira Mono" font-size="22.0" fill="#000000" transform="matrix(1.00, 0.00, -0.00, -1.00, 347.0, 670.2)">r</text><text xml:space="preserve" font-family="FiraMono-Regular,Fira Mono" font-size="22.0" fill="#000000" transform="matrix(1.00, 0.00, -0.00, -1.00, 360.2, 670.2)">e</text><text xml:space="preserve" font-family="FiraMono-Regular,Fira Mono" font-size="22.0" fill="#000000" transform="matrix(1.00, 0.00, -0.00, -1.00, 373.4, 670.2)">t</text><text xml:space="preserve" font-family="FiraMono-Regular,Fira Mono" font-size="22.0" fill="#000000" transform="matrix(1.00, 0.00, -0.00, -1.00, 386.6, 670.2)">u</text><text xml:space="preserve" font-family="FiraMono-Regular,Fira Mono" font-size="22.0" fill="#000000" transform="matrix(1.00, 0.00, -0.00, -1.00, 399.8, 670.2)">r</text><text xml:space="preserve" font-family="FiraMono-Regular,Fira Mono" font-size="22.0" fill="#000000" transform="matrix(1.00, 0.00, -0.00, -1.00, 413.0, 670.2)">n</text><text xml:space="preserve" font-family="FiraMono-Regular,Fira Mono" font-size="22.0" fill="#000000" transform="matrix(1.00, 0.00, -0.00, -1.00, 426.2, 670.2)"> </text><text xml:space="preserve" font-family="FiraMono-Regular,Fira Mono" font-size="22.0" fill="#000000" transform="matrix(1.00, 0.00, -0.00, -1.00, 439.4, 670.2)">a</text><text xml:space="preserve" font-family="FiraMono-Regular,Fira Mono" font-size="22.0" fill="#000000" transform="matrix(1.00, 0.00, -0.00, -1.00, 452.6, 670.2)"> </text><text xml:space="preserve" font-family="FiraMono-Regular,Fira Mono" font-size="22.0" fill="#000000" transform="matrix(1.00, 0.00, -0.00, -1.00, 465.8, 670.2)">+</text><text xml:space="preserve" font-family="FiraMono-Regular,Fira Mono" font-size="22.0" fill="#000000" transform="matrix(1.00, 0.00, -0.00, -1.00, 479.0, 670.2)"> </text><text xml:space="preserve" font-family="FiraMono-Regular,Fira Mono" font-size="22.0" fill="#000000" transform="matrix(1.00, 0.00, -0.00, -1.00, 492.2, 670.2)">b</text><text xml:space="preserve" font-family="FiraMono-Regular,Fira Mono" font-size="22.0" fill="#000000" transform="matrix(1.00, 0.00, -0.00, -1.00, 505.4, 670.2)">;</text><text xml:space="preserve" font-family="FiraMono-Regular,Fira Mono" font-size="22.0" fill="#000000" transform="matrix(1.00, 0.00, -0.00, -1.00, 518.6, 670.2)"> </text><text xml:space="preserve" font-family="FiraMono-Regular,Fira Mono" font-size="22.0" fill="#000000" transform="matrix(1.00, 0.00, -0.00, -1.00, 531.8, 670.2)">}</text><text xml:space="preserve" font-family="FiraMono-Regular,Fira Mono" font-size="22.0" fill="#000000" transform="matrix(1.00, 0.00, -0.00, -1.00, 545.0, 670.2)">;</text><text xml:space="preserve" font-family="FiraMono-Regular,Fira Mono" font-size="22.0" fill="#000000" transform="matrix(1.00, 0.00, -0.00, -1.00, 558.2, 670.2)"> </text><text xml:space="preserve" font-family="FiraMono-Regular,Fira Mono" font-size="22.0" fill="#000000" transform="matrix(1.00, 0.00, -0.00, -1.00, 571.4, 670.2)">f</text><text xml:space="preserve" font-family="FiraMono-Regular,Fira Mono" font-size="22.0" fill="#000000" transform="matrix(1.00, 0.00, -0.00, -1.00, 584.6, 670.2)">u</text><text xml:space="preserve" font-family="FiraMono-Regular,Fira Mono" font-size="22.0" fill="#000000" transform="matrix(1.00, 0.00, -0.00, -1.00, 597.8, 670.2)">n</text><text xml:space="preserve" font-family="FiraMono-Regular,Fira Mono" font-size="22.0" fill="#000000" transform="matrix(1.00, 0.00, -0.00, -1.00, 611.0, 670.2)">c</text><text xml:space="preserve" font-family="FiraMono-Regular,Fira Mono" font-size="22.0" fill="#000000" transform="matrix(1.00, 0.00, -0.00, -1.00, 624.2, 670.2)"> </text><text xml:space="preserve" font-family="FiraMono-Regular,Fira Mono" font-size="22.0" fill="#000000" transform="matrix(1.00, 0.00, -0.00, -1.00, 637.4, 670.2)">m</text><text xml:space="preserve" font-family="FiraMono-Regular,Fira Mono" font-size="22.0" fill="#000000" transform="matrix(1.00, 0.00, -0.00, -1.00, 650.6, 670.2)">a</text><text xml:space="preserve" font-family="FiraMono-Regular,Fira Mono" font-size="22.0" fill="#000000" transform="matrix(1.00, 0.00, -0.00, -1.00, 663.8, 670.2)">i</text><text xml:space="preserve" font-family="FiraMono-Regular,Fira Mono" font-size="22.0" fill="#000000" transform="matrix(1.00, 0.00, -0.00, -1.00, 677.0, 670.2)">n</text><text xml:space="preserve" font-family="FiraMono-Regular,Fira Mono" font-size="22.0" fill="#000000" transform="matrix(1.00, 0.00, -0.00, -1.00, 690.2, 670.2)">(</text><text xml:space="preserve" font-family="FiraMono-Regular,Fira Mono" font-size="22.0" fill="#000000" transform="matrix(1.00, 0.00, -0.00, -1.00, 703.4, 670.2)">)</text><text xml:space="preserve" font-family="FiraMono-Regular,Fira Mono" font-size="22.0" fill="#000000" transform="matrix(1.00, 0.00, -0.00, -1.00, 716.6, 670.2)"> </text><text xml:space="preserve" font-family="FiraMono-Regular,Fira Mono" font-size="22.0" fill="#000000" transform="matrix(1.00, 0.00, -0.00, -1.00, 729.8, 670.2)">{</text><text xml:space="preserve" font-family="FiraMono-Regular,Fira Mono" font-size="22.0" fill="#000000" transform="matrix(1.00, 0.00, -0.00, -1.00, 743.0, 670.2)"> </text><text xml:space="preserve" font-family="FiraMono-Regular,Fira Mono" font-size="22.0" fill="#000000" transform="matrix(1.00, 0.00, -0.00, -1.00, 756.2, 670.2)">_</text><text xml:space="preserve" font-family="FiraMono-Regular,Fira Mono" font-size="22.0" fill="#000000" transform="matrix(1.00, 0.00, -0.00, -1.00, 769.4, 670.2)"> </text><text xml:space="preserve" font-family="FiraMono-Regular,Fira Mono" font-size="22.0" fill="#000000" transform="matrix(1.00, 0.00, -0.00, -1.00, 782.6, 670.2)">=</text><text xml:space="preserve" font-family="FiraMono-Regular,Fira Mono" font-size="22.0" fill="#000000" transform="matrix(1.00, 0.00, -0.00, -1.00, 795.8, 670.2)"> </text><text xml:space="preserve" font-family="FiraMono-Regular,Fira Mono" font-size="22.0" fill="#000000" transform="matrix(1.00, 0.00, -0.00, -1.00, 809.0, 670.2)">f</text><text xml:space="preserve" font-family="FiraMono-Regular,Fira Mono" font-size="22.0" fill="#000000" transform="matrix(1.00, 0.00, -0.00, -1.00, 822.2, 670.2)">o</text><text xml:space="preserve" font-family="FiraMono-Regular,Fira Mono" font-size="22.0" fill="#000000" transform="matrix(1.00, 0.00, -0.00, -1.00, 835.4, 670.2)">o</text><text xml:space="preserve" font-family="FiraMono-Regular,Fira Mono" font-size="22.0" fill="#000000" transform="matrix(1.00, 0.00, -0.00, -1.00, 848.6, 670.2)">(</text><text xml:space="preserve" font-family="FiraMono-Regular,Fira Mono" font-size="22.0" fill="#000000" transform="matrix(1.00, 0.00, -0.00, -1.00, 861.8, 670.2)">1</text><text xml:space="preserve" font-family="FiraMono-Regular,Fira Mono" font-size="22.0" fill="#000000" transform="matrix(1.00, 0.00, -0.00, -1.00, 875.0, 670.2)">3</text><text xml:space="preserve" font-family="FiraMono-Regular,Fira Mono" font-size="22.0" fill="#000000" transform="matrix(1.00, 0.00, -0.00, -1.00, 888.2, 670.2)">,</text><text xml:space="preserve" font-family="FiraMono-Regular,Fira Mono" font-size="22.0" fill="#000000" transform="matrix(1.00, 0.00, -0.00, -1.00, 901.4, 670.2)"> </text><text xml:space="preserve" font-family="FiraMono-Regular,Fira Mono" font-size="22.0" fill="#000000" transform="matrix(1.00, 0.00, -0.00, -1.00, 914.6, 670.2)">3</text><text xml:space="preserve" font-family="FiraMono-Regular,Fira Mono" font-size="22.0" fill="#000000" transform="matrix(1.00, 0.00, -0.00, -1.00, 927.8, 670.2)">1</text><text xml:space="preserve" font-family="FiraMono-Regular,Fira Mono" font-size="22.0" fill="#000000" transform="matrix(1.00, 0.00, -0.00, -1.00, 941.0, 670.2)">)</text><text xml:space="preserve" font-family="FiraMono-Regular,Fira Mono" font-size="22.0" fill="#000000" transform="matrix(1.00, 0.00, -0.00, -1.00, 954.2, 670.2)">;</text><text xml:space="preserve" font-family="FiraMono-Regular,Fira Mono" font-size="22.0" fill="#000000" transform="matrix(1.00, 0.00, -0.00, -1.00, 967.4, 670.2)"> </text><text xml:space="preserve" font-family="FiraMono-Regular,Fira Mono" font-size="22.0" fill="#000000" transform="matrix(1.00, 0.00, -0.00, -1.00, 980.6, 670.2)">}</text><text xml:space="preserve" font-family="FiraMono-Regular,Fira Mono" font-size="22.0" fill="#000000" transform="matrix(1.00, 0.00, -0.00, -1.00, 993.8, 670.2)">;</text><text xml:space="preserve" font-family="FiraMono-Regular,Fira Mono" font-size="22.0" fill="#000000" transform="matrix(1.00, 0.00, -0.00, -1.00, 1007.0, 670.2)"> </text><path d="M 23.5 612.5 L 482.5 612.5 L 482.5 338.5 L 23.5 338.5 Z M 23.2 613.0 " fill="#FEFFFF" fill-opacity="0.97"></path><path d="M 0.3 0.5 L 459.3 0.5 L 459.3 274.5 L 0.3 274.5 Z M 0.0 0.0 " fill="none" stroke="#000000" stroke-width="5.00" transform="matrix(1.00, 0.00, 0.00, -1.00, 23.2, 613.0)"></path><g><clipPath id="clip0x6000022ad140"><path d="M 22.4 338.2 L 920.2 338.2 L 920.2 613.9 L 22.4 613.9 Z M 22.4 338.2 "></path></clipPath><g clip-path="url(#clip0x6000022ad140)"><text xml:space="preserve" font-family="FiraMono-Regular,Fira Mono" font-size="21.0" fill="#000000" transform="matrix(1.00, 0.00, -0.00, -1.00, 29.7, 584.9)">x</text><text xml:space="preserve" font-family="FiraMono-Regular,Fira Mono" font-size="21.0" fill="#000000" transform="matrix(1.00, 0.00, -0.00, -1.00, 42.3, 584.9)">d</text><text xml:space="preserve" font-family="FiraMono-Regular,Fira Mono" font-size="21.0" fill="#000000" transform="matrix(1.00, 0.00, -0.00, -1.00, 54.9, 584.9)">c</text><text xml:space="preserve" font-family="FiraMono-Regular,Fira Mono" font-size="21.0" fill="#000000" transform="matrix(1.00, 0.00, -0.00, -1.00, 67.5, 584.9)">l</text><text xml:space="preserve" font-family="FiraMono-Regular,Fira Mono" font-size="21.0" fill="#000000" transform="matrix(1.00, 0.00, -0.00, -1.00, 80.1, 584.9)">_</text><text xml:space="preserve" font-family="FiraMono-Regular,Fira Mono" font-size="21.0" fill="#000000" transform="matrix(1.00, 0.00, -0.00, -1.00, 92.7, 584.9)">l</text><text xml:space="preserve" font-family="FiraMono-Regular,Fira Mono" font-size="21.0" fill="#000000" transform="matrix(1.00, 0.00, -0.00, -1.00, 105.3, 584.9)">i</text><text xml:space="preserve" font-family="FiraMono-Regular,Fira Mono" font-size="21.0" fill="#000000" transform="matrix(1.00, 0.00, -0.00, -1.00, 117.9, 584.9)">s</text><text xml:space="preserve" font-family="FiraMono-Regular,Fira Mono" font-size="21.0" fill="#000000" transform="matrix(1.00, 0.00, -0.00, -1.00, 130.5, 584.9)">t</text><text xml:space="preserve" font-family="FiraMono-Regular,Fira Mono" font-size="21.0" fill="#000000" transform="matrix(1.00, 0.00, -0.00, -1.00, 143.1, 584.9)">:</text><text xml:space="preserve" font-family="FiraMono-Regular,Fira Mono" font-size="21.0" fill="#000000" transform="matrix(1.00, 0.00, -0.00, -1.00, 155.7, 584.9)"> </text><text xml:space="preserve" font-family="FiraMono-Regular,Fira Mono" font-size="21.0" fill="#000000" transform="matrix(1.00, 0.00, -0.00, -1.00, 29.7, 555.9)"> </text><text xml:space="preserve" font-family="FiraMono-Regular,Fira Mono" font-size="21.0" fill="#000000" transform="matrix(1.00, 0.00, -0.00, -1.00, 75.7, 555.9)">{</text><text xml:space="preserve" font-family="FiraMono-Regular,Fira Mono" font-size="21.0" fill="#000000" transform="matrix(1.00, 0.00, -0.00, -1.00, 88.3, 555.9)"> </text><text xml:space="preserve" font-family="FiraMono-Regular,Fira Mono" font-size="21.0" fill="#000000" transform="matrix(1.00, 0.00, -0.00, -1.00, 29.7, 526.9)"> </text><text xml:space="preserve" font-family="FiraMono-Regular,Fira Mono" font-size="21.0" fill="#000000" transform="matrix(1.00, 0.00, -0.00, -1.00, 75.7, 526.9)"> </text><text xml:space="preserve" font-family="FiraMono-Regular,Fira Mono" font-size="21.0" fill="#000000" transform="matrix(1.00, 0.00, -0.00, -1.00, 121.7, 526.9)">$</text><text xml:space="preserve" font-family="FiraMono-Regular,Fira Mono" font-size="21.0" fill="#000000" transform="matrix(1.00, 0.00, -0.00, -1.00, 134.3, 526.9)">$</text><text xml:space="preserve" font-family="FiraMono-Regular,Fira Mono" font-size="21.0" fill="#000000" transform="matrix(1.00, 0.00, -0.00, -1.00, 146.9, 526.9)"> </text><text xml:space="preserve" font-family="FiraMono-Regular,Fira Mono" font-size="21.0" fill="#000000" transform="matrix(1.00, 0.00, -0.00, -1.00, 159.5, 526.9)">=</text><text xml:space="preserve" font-family="FiraMono-Regular,Fira Mono" font-size="21.0" fill="#000000" transform="matrix(1.00, 0.00, -0.00, -1.00, 172.1, 526.9)"> </text><text xml:space="preserve" font-family="FiraMono-Regular,Fira Mono" font-size="21.0" fill="#000000" transform="matrix(1.00, 0.00, -0.00, -1.00, 184.7, 526.9)">n</text><text xml:space="preserve" font-family="FiraMono-Regular,Fira Mono" font-size="21.0" fill="#000000" transform="matrix(1.00, 0.00, -0.00, -1.00, 197.3, 526.9)">i</text><text xml:space="preserve" font-family="FiraMono-Regular,Fira Mono" font-size="21.0" fill="#000000" transform="matrix(1.00, 0.00, -0.00, -1.00, 209.9, 526.9)">l</text><text xml:space="preserve" font-family="FiraMono-Regular,Fira Mono" font-size="21.0" fill="#000000" transform="matrix(1.00, 0.00, -0.00, -1.00, 222.5, 526.9)">;</text><text xml:space="preserve" font-family="FiraMono-Regular,Fira Mono" font-size="21.0" fill="#000000" transform="matrix(1.00, 0.00, -0.00, -1.00, 235.1, 526.9)"> </text><text xml:space="preserve" font-family="FiraMono-Regular,Fira Mono" font-size="21.0" fill="#000000" transform="matrix(1.00, 0.00, -0.00, -1.00, 29.7, 497.9)"> </text><text xml:space="preserve" font-family="FiraMono-Regular,Fira Mono" font-size="21.0" fill="#000000" transform="matrix(1.00, 0.00, -0.00, -1.00, 75.7, 497.9)">}</text><text xml:space="preserve" font-family="FiraMono-Regular,Fira Mono" font-size="21.0" fill="#000000" transform="matrix(1.00, 0.00, -0.00, -1.00, 88.3, 497.9)"> </text><text xml:space="preserve" font-family="FiraMono-Regular,Fira Mono" font-size="21.0" fill="#000000" transform="matrix(1.00, 0.00, -0.00, -1.00, 29.7, 468.9)">|</text><text xml:space="preserve" font-family="FiraMono-Regular,Fira Mono" font-size="21.0" fill="#000000" transform="matrix(1.00, 0.00, -0.00, -1.00, 42.3, 468.9)"> </text><text xml:space="preserve" font-family="FiraMono-Regular,Fira Mono" font-size="21.0" fill="#000000" transform="matrix(1.00, 0.00, -0.00, -1.00, 75.7, 468.9)">x</text><text xml:space="preserve" font-family="FiraMono-Regular,Fira Mono" font-size="21.0" fill="#000000" transform="matrix(1.00, 0.00, -0.00, -1.00, 88.3, 468.9)">d</text><text xml:space="preserve" font-family="FiraMono-Regular,Fira Mono" font-size="21.0" fill="#000000" transform="matrix(1.00, 0.00, -0.00, -1.00, 100.9, 468.9)">c</text><text xml:space="preserve" font-family="FiraMono-Regular,Fira Mono" font-size="21.0" fill="#000000" transform="matrix(1.00, 0.00, -0.00, -1.00, 113.5, 468.9)">l</text><text xml:space="preserve" font-family="FiraMono-Regular,Fira Mono" font-size="21.0" fill="#000000" transform="matrix(1.00, 0.00, -0.00, -1.00, 126.1, 468.9)">_</text><text xml:space="preserve" font-family="FiraMono-Regular,Fira Mono" font-size="21.0" fill="#000000" transform="matrix(1.00, 0.00, -0.00, -1.00, 138.7, 468.9)">l</text><text xml:space="preserve" font-family="FiraMono-Regular,Fira Mono" font-size="21.0" fill="#000000" transform="matrix(1.00, 0.00, -0.00, -1.00, 151.3, 468.9)">i</text><text xml:space="preserve" font-family="FiraMono-Regular,Fira Mono" font-size="21.0" fill="#000000" transform="matrix(1.00, 0.00, -0.00, -1.00, 163.9, 468.9)">s</text><text xml:space="preserve" font-family="FiraMono-Regular,Fira Mono" font-size="21.0" fill="#000000" transform="matrix(1.00, 0.00, -0.00, -1.00, 176.5, 468.9)">t</text><text xml:space="preserve" font-family="FiraMono-Regular,Fira Mono" font-size="21.0" fill="#000000" transform="matrix(1.00, 0.00, -0.00, -1.00, 189.1, 468.9)"> </text><text xml:space="preserve" font-family="FiraMono-Regular,Fira Mono" font-size="21.0" fill="#000000" transform="matrix(1.00, 0.00, -0.00, -1.00, 201.7, 468.9)">x</text><text xml:space="preserve" font-family="FiraMono-Regular,Fira Mono" font-size="21.0" fill="#000000" transform="matrix(1.00, 0.00, -0.00, -1.00, 214.3, 468.9)">d</text><text xml:space="preserve" font-family="FiraMono-Regular,Fira Mono" font-size="21.0" fill="#000000" transform="matrix(1.00, 0.00, -0.00, -1.00, 226.9, 468.9)">c</text><text xml:space="preserve" font-family="FiraMono-Regular,Fira Mono" font-size="21.0" fill="#000000" transform="matrix(1.00, 0.00, -0.00, -1.00, 239.5, 468.9)">l</text><text xml:space="preserve" font-family="FiraMono-Regular,Fira Mono" font-size="21.0" fill="#000000" transform="matrix(1.00, 0.00, -0.00, -1.00, 252.1, 468.9)"> </text><text xml:space="preserve" font-family="FiraMono-Regular,Fira Mono" font-size="21.0" fill="#000000" transform="matrix(1.00, 0.00, -0.00, -1.00, 264.7, 468.9)">'</text><text xml:space="preserve" font-family="FiraMono-Regular,Fira Mono" font-size="21.0" fill="#000000" transform="matrix(1.00, 0.00, -0.00, -1.00, 277.3, 468.9)">;</text><text xml:space="preserve" font-family="FiraMono-Regular,Fira Mono" font-size="21.0" fill="#000000" transform="matrix(1.00, 0.00, -0.00, -1.00, 289.9, 468.9)">'</text><text xml:space="preserve" font-family="FiraMono-Regular,Fira Mono" font-size="21.0" fill="#000000" transform="matrix(1.00, 0.00, -0.00, -1.00, 302.5, 468.9)"> </text><text xml:space="preserve" font-family="FiraMono-Regular,Fira Mono" font-size="21.0" fill="#000000" transform="matrix(1.00, 0.00, -0.00, -1.00, 29.7, 439.9)"> </text><text xml:space="preserve" font-family="FiraMono-Regular,Fira Mono" font-size="21.0" fill="#000000" transform="matrix(1.00, 0.00, -0.00, -1.00, 75.7, 439.9)">{</text><text xml:space="preserve" font-family="FiraMono-Regular,Fira Mono" font-size="21.0" fill="#000000" transform="matrix(1.00, 0.00, -0.00, -1.00, 88.3, 439.9)"> </text><text xml:space="preserve" font-family="FiraMono-Regular,Fira Mono" font-size="21.0" fill="#000000" transform="matrix(1.00, 0.00, -0.00, -1.00, 29.7, 410.9)"> </text><text xml:space="preserve" font-family="FiraMono-Regular,Fira Mono" font-size="21.0" fill="#000000" transform="matrix(1.00, 0.00, -0.00, -1.00, 75.7, 410.9)"> </text><text xml:space="preserve" font-family="FiraMono-Regular,Fira Mono" font-size="21.0" fill="#000000" transform="matrix(1.00, 0.00, -0.00, -1.00, 121.7, 410.9)">$</text><text xml:space="preserve" font-family="FiraMono-Regular,Fira Mono" font-size="21.0" fill="#000000" transform="matrix(1.00, 0.00, -0.00, -1.00, 134.3, 410.9)">$</text><text xml:space="preserve" font-family="FiraMono-Regular,Fira Mono" font-size="21.0" fill="#000000" transform="matrix(1.00, 0.00, -0.00, -1.00, 146.9, 410.9)"> </text><text xml:space="preserve" font-family="FiraMono-Regular,Fira Mono" font-size="21.0" fill="#000000" transform="matrix(1.00, 0.00, -0.00, -1.00, 159.5, 410.9)">=</text><text xml:space="preserve" font-family="FiraMono-Regular,Fira Mono" font-size="21.0" fill="#000000" transform="matrix(1.00, 0.00, -0.00, -1.00, 172.1, 410.9)"> </text><text xml:space="preserve" font-family="FiraMono-Regular,Fira Mono" font-size="21.0" fill="#000000" transform="matrix(1.00, 0.00, -0.00, -1.00, 184.7, 410.9)">c</text><text xml:space="preserve" font-family="FiraMono-Regular,Fira Mono" font-size="21.0" fill="#000000" transform="matrix(1.00, 0.00, -0.00, -1.00, 197.3, 410.9)">o</text><text xml:space="preserve" font-family="FiraMono-Regular,Fira Mono" font-size="21.0" fill="#000000" transform="matrix(1.00, 0.00, -0.00, -1.00, 209.9, 410.9)">n</text><text xml:space="preserve" font-family="FiraMono-Regular,Fira Mono" font-size="21.0" fill="#000000" transform="matrix(1.00, 0.00, -0.00, -1.00, 222.5, 410.9)">c</text><text xml:space="preserve" font-family="FiraMono-Regular,Fira Mono" font-size="21.0" fill="#000000" transform="matrix(1.00, 0.00, -0.00, -1.00, 235.1, 410.9)">a</text><text xml:space="preserve" font-family="FiraMono-Regular,Fira Mono" font-size="21.0" fill="#000000" transform="matrix(1.00, 0.00, -0.00, -1.00, 247.7, 410.9)">t</text><text xml:space="preserve" font-family="FiraMono-Regular,Fira Mono" font-size="21.0" fill="#000000" transform="matrix(1.00, 0.00, -0.00, -1.00, 260.3, 410.9)">(</text><text xml:space="preserve" font-family="FiraMono-Regular,Fira Mono" font-size="21.0" fill="#000000" transform="matrix(1.00, 0.00, -0.00, -1.00, 272.9, 410.9)">$</text><text xml:space="preserve" font-family="FiraMono-Regular,Fira Mono" font-size="21.0" fill="#000000" transform="matrix(1.00, 0.00, -0.00, -1.00, 285.5, 410.9)">1</text><text xml:space="preserve" font-family="FiraMono-Regular,Fira Mono" font-size="21.0" fill="#000000" transform="matrix(1.00, 0.00, -0.00, -1.00, 298.1, 410.9)">,</text><text xml:space="preserve" font-family="FiraMono-Regular,Fira Mono" font-size="21.0" fill="#000000" transform="matrix(1.00, 0.00, -0.00, -1.00, 310.7, 410.9)"> </text><text xml:space="preserve" font-family="FiraMono-Regular,Fira Mono" font-size="21.0" fill="#000000" transform="matrix(1.00, 0.00, -0.00, -1.00, 323.3, 410.9)">$</text><text xml:space="preserve" font-family="FiraMono-Regular,Fira Mono" font-size="21.0" fill="#000000" transform="matrix(1.00, 0.00, -0.00, -1.00, 335.9, 410.9)">2</text><text xml:space="preserve" font-family="FiraMono-Regular,Fira Mono" font-size="21.0" fill="#000000" transform="matrix(1.00, 0.00, -0.00, -1.00, 348.5, 410.9)">)</text><text xml:space="preserve" font-family="FiraMono-Regular,Fira Mono" font-size="21.0" fill="#000000" transform="matrix(1.00, 0.00, -0.00, -1.00, 361.1, 410.9)">;</text><text xml:space="preserve" font-family="FiraMono-Regular,Fira Mono" font-size="21.0" fill="#000000" transform="matrix(1.00, 0.00, -0.00, -1.00, 373.7, 410.9)"> </text><text xml:space="preserve" font-family="FiraMono-Regular,Fira Mono" font-size="21.0" fill="#000000" transform="matrix(1.00, 0.00, -0.00, -1.00, 29.7, 381.9)"> </text><text xml:space="preserve" font-family="FiraMono-Regular,Fira Mono" font-size="21.0" fill="#000000" transform="matrix(1.00, 0.00, -0.00, -1.00, 75.7, 381.9)"> </text><text xml:space="preserve" font-family="FiraMono-Regular,Fira Mono" font-size="21.0" fill="#000000" transform="matrix(1.00, 0.00, -0.00, -1.00, 121.7, 381.9)">/</text><text xml:space="preserve" font-family="FiraMono-Regular,Fira Mono" font-size="21.0" fill="#000000" transform="matrix(1.00, 0.00, -0.00, -1.00, 134.3, 381.9)">/</text><text xml:space="preserve" font-family="FiraMono-Regular,Fira Mono" font-size="21.0" fill="#000000" transform="matrix(1.00, 0.00, -0.00, -1.00, 146.9, 381.9)"> </text><text xml:space="preserve" font-family="FiraMono-Regular,Fira Mono" font-size="21.0" fill="#000000" transform="matrix(1.00, 0.00, -0.00, -1.00, 159.5, 381.9)">.</text><text xml:space="preserve" font-family="FiraMono-Regular,Fira Mono" font-size="21.0" fill="#000000" transform="matrix(1.00, 0.00, -0.00, -1.00, 172.1, 381.9)">.</text><text xml:space="preserve" font-family="FiraMono-Regular,Fira Mono" font-size="21.0" fill="#000000" transform="matrix(1.00, 0.00, -0.00, -1.00, 184.7, 381.9)">.</text><text xml:space="preserve" font-family="FiraMono-Regular,Fira Mono" font-size="21.0" fill="#000000" transform="matrix(1.00, 0.00, -0.00, -1.00, 197.3, 381.9)"> </text><text xml:space="preserve" font-family="FiraMono-Regular,Fira Mono" font-size="21.0" fill="#000000" transform="matrix(1.00, 0.00, -0.00, -1.00, 209.9, 381.9)">m</text><text xml:space="preserve" font-family="FiraMono-Regular,Fira Mono" font-size="21.0" fill="#000000" transform="matrix(1.00, 0.00, -0.00, -1.00, 222.5, 381.9)">á</text><text xml:space="preserve" font-family="FiraMono-Regular,Fira Mono" font-size="21.0" fill="#000000" transform="matrix(1.00, 0.00, -0.00, -1.00, 235.1, 381.9)">s</text><text xml:space="preserve" font-family="FiraMono-Regular,Fira Mono" font-size="21.0" fill="#000000" transform="matrix(1.00, 0.00, -0.00, -1.00, 247.7, 381.9)"> </text><text xml:space="preserve" font-family="FiraMono-Regular,Fira Mono" font-size="21.0" fill="#000000" transform="matrix(1.00, 0.00, -0.00, -1.00, 260.3, 381.9)">l</text><text xml:space="preserve" font-family="FiraMono-Regular,Fira Mono" font-size="21.0" fill="#000000" transform="matrix(1.00, 0.00, -0.00, -1.00, 272.9, 381.9)">í</text><text xml:space="preserve" font-family="FiraMono-Regular,Fira Mono" font-size="21.0" fill="#000000" transform="matrix(1.00, 0.00, -0.00, -1.00, 285.5, 381.9)">n</text><text xml:space="preserve" font-family="FiraMono-Regular,Fira Mono" font-size="21.0" fill="#000000" transform="matrix(1.00, 0.00, -0.00, -1.00, 298.1, 381.9)">e</text><text xml:space="preserve" font-family="FiraMono-Regular,Fira Mono" font-size="21.0" fill="#000000" transform="matrix(1.00, 0.00, -0.00, -1.00, 310.7, 381.9)">a</text><text xml:space="preserve" font-family="FiraMono-Regular,Fira Mono" font-size="21.0" fill="#000000" transform="matrix(1.00, 0.00, -0.00, -1.00, 323.3, 381.9)">s</text><text xml:space="preserve" font-family="FiraMono-Regular,Fira Mono" font-size="21.0" fill="#000000" transform="matrix(1.00, 0.00, -0.00, -1.00, 335.9, 381.9)"> </text><text xml:space="preserve" font-family="FiraMono-Regular,Fira Mono" font-size="21.0" fill="#000000" transform="matrix(1.00, 0.00, -0.00, -1.00, 348.5, 381.9)">o</text><text xml:space="preserve" font-family="FiraMono-Regular,Fira Mono" font-size="21.0" fill="#000000" transform="matrix(1.00, 0.00, -0.00, -1.00, 361.1, 381.9)">m</text><text xml:space="preserve" font-family="FiraMono-Regular,Fira Mono" font-size="21.0" fill="#000000" transform="matrix(1.00, 0.00, -0.00, -1.00, 373.7, 381.9)">i</text><text xml:space="preserve" font-family="FiraMono-Regular,Fira Mono" font-size="21.0" fill="#000000" transform="matrix(1.00, 0.00, -0.00, -1.00, 386.3, 381.9)">t</text><text xml:space="preserve" font-family="FiraMono-Regular,Fira Mono" font-size="21.0" fill="#000000" transform="matrix(1.00, 0.00, -0.00, -1.00, 398.9, 381.9)">i</text><text xml:space="preserve" font-family="FiraMono-Regular,Fira Mono" font-size="21.0" fill="#000000" transform="matrix(1.00, 0.00, -0.00, -1.00, 411.5, 381.9)">d</text><text xml:space="preserve" font-family="FiraMono-Regular,Fira Mono" font-size="21.0" fill="#000000" transform="matrix(1.00, 0.00, -0.00, -1.00, 424.1, 381.9)">a</text><text xml:space="preserve" font-family="FiraMono-Regular,Fira Mono" font-size="21.0" fill="#000000" transform="matrix(1.00, 0.00, -0.00, -1.00, 436.7, 381.9)">s</text><text xml:space="preserve" font-family="FiraMono-Regular,Fira Mono" font-size="21.0" fill="#000000" transform="matrix(1.00, 0.00, -0.00, -1.00, 449.3, 381.9)">.</text><text xml:space="preserve" font-family="FiraMono-Regular,Fira Mono" font-size="21.0" fill="#000000" transform="matrix(1.00, 0.00, -0.00, -1.00, 461.9, 381.9)"> </text><text xml:space="preserve" font-family="FiraMono-Regular,Fira Mono" font-size="21.0" fill="#000000" transform="matrix(1.00, 0.00, -0.00, -1.00, 29.7, 352.9)"> </text><text xml:space="preserve" font-family="FiraMono-Regular,Fira Mono" font-size="21.0" fill="#000000" transform="matrix(1.00, 0.00, -0.00, -1.00, 75.7, 352.9)">}</text></g></g><g opacity="0.30"><g><clipPath id="clip0x6000022a8f40"><path d="M 194.0 462.0 L 266.0 462.0 L 266.0 490.0 L 194.0 490.0 Z M 194.0 462.0 "></path></clipPath><g clip-path="url(#clip0x6000022a8f40)"><path d="M 195.0 489.0 L 264.0 489.0 L 264.0 463.0 L 195.0 463.0 Z M 195.0 489.0 " fill="#F5D327"></path></g></g></g><g opacity="0.30"><g><clipPath id="clip0x6000020b94a0"><path d="M 14.0 664.0 L 545.0 664.0 L 545.0 692.0 L 14.0 692.0 Z M 14.0 664.0 "></path></clipPath><g clip-path="url(#clip0x6000020b94a0)"><path d="M 15.0 691.0 L 543.0 691.0 L 543.0 665.0 L 15.0 665.0 Z M 15.4 691.0 " fill="#F5D327"></path></g></g></g><g opacity="0.30"><g><clipPath id="clip0x600001eb4460"><path d="M 267.0 462.0 L 303.0 462.0 L 303.0 490.0 L 267.0 490.0 Z M 267.0 462.0 "></path></clipPath><g clip-path="url(#clip0x600001eb4460)"><path d="M 268.0 489.0 L 302.0 489.0 L 302.0 463.0 L 268.0 463.0 Z M 268.0 489.0 " fill="#6FBF40"></path></g></g></g><g opacity="0.30"><g><clipPath id="clip0x6000020bfe60"><path d="M 70.0 462.0 L 193.0 462.0 L 193.0 490.0 L 70.0 490.0 Z M 70.0 462.0 "></path></clipPath><g clip-path="url(#clip0x6000020bfe60)"><path d="M 71.0 489.0 L 191.0 489.0 L 191.0 463.0 L 71.0 463.0 Z M 71.0 489.0 " fill="#F38F18"></path></g></g></g><text xml:space="preserve" font-family="FiraMono-Regular,Fira Mono" font-size="22.0" fill="#000000" transform="matrix(1.00, 0.00, -0.00, -1.00, 661.0, 425.2)">*</text><text xml:space="preserve" font-family="FiraMono-Regular,Fira Mono" font-size="22.0" fill="#000000" transform="matrix(1.00, 0.00, -0.00, -1.00, 674.2, 425.2)">N</text><text xml:space="preserve" font-family="FiraMono-Regular,Fira Mono" font-size="22.0" fill="#000000" transform="matrix(1.00, 0.00, -0.00, -1.00, 687.4, 425.2)">o</text><text xml:space="preserve" font-family="FiraMono-Regular,Fira Mono" font-size="22.0" fill="#000000" transform="matrix(1.00, 0.00, -0.00, -1.00, 700.6, 425.2)">d</text><text xml:space="preserve" font-family="FiraMono-Regular,Fira Mono" font-size="22.0" fill="#000000" transform="matrix(1.00, 0.00, -0.00, -1.00, 713.8, 425.2)">e</text><text xml:space="preserve" font-family="FiraMono-Regular,Fira Mono" font-size="22.0" fill="#000000" transform="matrix(1.00, 0.00, -0.00, -1.00, 727.0, 425.2)">L</text><text xml:space="preserve" font-family="FiraMono-Regular,Fira Mono" font-size="22.0" fill="#000000" transform="matrix(1.00, 0.00, -0.00, -1.00, 740.2, 425.2)">i</text><text xml:space="preserve" font-family="FiraMono-Regular,Fira Mono" font-size="22.0" fill="#000000" transform="matrix(1.00, 0.00, -0.00, -1.00, 753.4, 425.2)">s</text><text xml:space="preserve" font-family="FiraMono-Regular,Fira Mono" font-size="22.0" fill="#000000" transform="matrix(1.00, 0.00, -0.00, -1.00, 766.6, 425.2)">t</text><text xml:space="preserve" font-family="FiraMono-Regular,Fira Mono" font-size="22.0" fill="#000000" transform="matrix(1.00, 0.00, -0.00, -1.00, 779.8, 425.2)"> </text><text xml:space="preserve" font-family="FiraMono-Regular,Fira Mono" font-size="22.0" fill="#000000" transform="matrix(1.00, 0.00, -0.00, -1.00, 793.0, 425.2)">=</text><text xml:space="preserve" font-family="FiraMono-Regular,Fira Mono" font-size="22.0" fill="#000000" transform="matrix(1.00, 0.00, -0.00, -1.00, 806.2, 425.2)"> </text><text xml:space="preserve" font-family="FiraMono-Regular,Fira Mono" font-size="22.0" fill="#000000" transform="matrix(1.00, 0.00, -0.00, -1.00, 819.4, 425.2)">n</text><text xml:space="preserve" font-family="FiraMono-Regular,Fira Mono" font-size="22.0" fill="#000000" transform="matrix(1.00, 0.00, -0.00, -1.00, 832.6, 425.2)">i</text><text xml:space="preserve" font-family="FiraMono-Regular,Fira Mono" font-size="22.0" fill="#000000" transform="matrix(1.00, 0.00, -0.00, -1.00, 845.8, 425.2)">l</text><path d="M 47.5 589.5 L 354.5 589.5 L 354.5 460.5 L 47.5 460.5 Z M 47.2 589.5 " fill="#FEFFFF" fill-opacity="0.97"></path><path d="M 0.3 -0.0 L 307.3 -0.0 L 307.3 129.0 L 0.3 129.0 Z M 0.0 0.0 " fill="none" stroke="#000000" stroke-width="5.00" transform="matrix(1.00, 0.00, 0.00, -1.00, 47.2, 589.5)"></path><g><clipPath id="clip0x6000020b99e0"><path d="M 46.4 459.7 L 641.8 459.7 L 641.8 590.4 L 46.4 590.4 Z M 46.4 459.7 "></path></clipPath><g clip-path="url(#clip0x6000020b99e0)"><text xml:space="preserve" font-family="FiraMono-Regular,Fira Mono" font-size="21.0" fill="#000000" transform="matrix(1.00, 0.00, -0.00, -1.00, 53.7, 561.4)">x</text><text xml:space="preserve" font-family="FiraMono-Regular,Fira Mono" font-size="21.0" fill="#000000" transform="matrix(1.00, 0.00, -0.00, -1.00, 66.3, 561.4)">d</text><text xml:space="preserve" font-family="FiraMono-Regular,Fira Mono" font-size="21.0" fill="#000000" transform="matrix(1.00, 0.00, -0.00, -1.00, 78.9, 561.4)">c</text><text xml:space="preserve" font-family="FiraMono-Regular,Fira Mono" font-size="21.0" fill="#000000" transform="matrix(1.00, 0.00, -0.00, -1.00, 91.5, 561.4)">l</text><text xml:space="preserve" font-family="FiraMono-Regular,Fira Mono" font-size="21.0" fill="#000000" transform="matrix(1.00, 0.00, -0.00, -1.00, 104.1, 561.4)"> </text><text xml:space="preserve" font-family="FiraMono-Regular,Fira Mono" font-size="21.0" fill="#000000" transform="matrix(1.00, 0.00, -0.00, -1.00, 116.7, 561.4)">-</text><text xml:space="preserve" font-family="FiraMono-Regular,Fira Mono" font-size="21.0" fill="#000000" transform="matrix(1.00, 0.00, -0.00, -1.00, 129.3, 561.4)">&gt;</text><text xml:space="preserve" font-family="FiraMono-Regular,Fira Mono" font-size="21.0" fill="#000000" transform="matrix(1.00, 0.00, -0.00, -1.00, 141.9, 561.4)"> </text><text xml:space="preserve" font-family="FiraMono-Regular,Fira Mono" font-size="21.0" fill="#000000" transform="matrix(1.00, 0.00, -0.00, -1.00, 154.5, 561.4)">x</text><text xml:space="preserve" font-family="FiraMono-Regular,Fira Mono" font-size="21.0" fill="#000000" transform="matrix(1.00, 0.00, -0.00, -1.00, 167.1, 561.4)">f</text><text xml:space="preserve" font-family="FiraMono-Regular,Fira Mono" font-size="21.0" fill="#000000" transform="matrix(1.00, 0.00, -0.00, -1.00, 179.7, 561.4)">n</text><text xml:space="preserve" font-family="FiraMono-Regular,Fira Mono" font-size="21.0" fill="#000000" transform="matrix(1.00, 0.00, -0.00, -1.00, 192.3, 561.4)">d</text><text xml:space="preserve" font-family="FiraMono-Regular,Fira Mono" font-size="21.0" fill="#000000" transform="matrix(1.00, 0.00, -0.00, -1.00, 204.9, 561.4)">c</text><text xml:space="preserve" font-family="FiraMono-Regular,Fira Mono" font-size="21.0" fill="#000000" transform="matrix(1.00, 0.00, -0.00, -1.00, 217.5, 561.4)">l</text><text xml:space="preserve" font-family="FiraMono-Regular,Fira Mono" font-size="21.0" fill="#000000" transform="matrix(1.00, 0.00, -0.00, -1.00, 230.1, 561.4)">:</text><text xml:space="preserve" font-family="FiraMono-Regular,Fira Mono" font-size="21.0" fill="#000000" transform="matrix(1.00, 0.00, -0.00, -1.00, 242.7, 561.4)"> </text><text xml:space="preserve" font-family="FiraMono-Regular,Fira Mono" font-size="21.0" fill="#000000" transform="matrix(1.00, 0.00, -0.00, -1.00, 53.7, 532.4)"> </text><text xml:space="preserve" font-family="FiraMono-Regular,Fira Mono" font-size="21.0" fill="#000000" transform="matrix(1.00, 0.00, -0.00, -1.00, 99.7, 532.4)">{</text><text xml:space="preserve" font-family="FiraMono-Regular,Fira Mono" font-size="21.0" fill="#000000" transform="matrix(1.00, 0.00, -0.00, -1.00, 112.3, 532.4)"> </text><text xml:space="preserve" font-family="FiraMono-Regular,Fira Mono" font-size="21.0" fill="#000000" transform="matrix(1.00, 0.00, -0.00, -1.00, 53.7, 503.4)"> </text><text xml:space="preserve" font-family="FiraMono-Regular,Fira Mono" font-size="21.0" fill="#000000" transform="matrix(1.00, 0.00, -0.00, -1.00, 99.7, 503.4)"> </text><text xml:space="preserve" font-family="FiraMono-Regular,Fira Mono" font-size="21.0" fill="#000000" transform="matrix(1.00, 0.00, -0.00, -1.00, 145.7, 503.4)">$</text><text xml:space="preserve" font-family="FiraMono-Regular,Fira Mono" font-size="21.0" fill="#000000" transform="matrix(1.00, 0.00, -0.00, -1.00, 158.3, 503.4)">$</text><text xml:space="preserve" font-family="FiraMono-Regular,Fira Mono" font-size="21.0" fill="#000000" transform="matrix(1.00, 0.00, -0.00, -1.00, 170.9, 503.4)"> </text><text xml:space="preserve" font-family="FiraMono-Regular,Fira Mono" font-size="21.0" fill="#000000" transform="matrix(1.00, 0.00, -0.00, -1.00, 183.5, 503.4)">=</text><text xml:space="preserve" font-family="FiraMono-Regular,Fira Mono" font-size="21.0" fill="#000000" transform="matrix(1.00, 0.00, -0.00, -1.00, 196.1, 503.4)"> </text><text xml:space="preserve" font-family="FiraMono-Regular,Fira Mono" font-size="21.0" fill="#000000" transform="matrix(1.00, 0.00, -0.00, -1.00, 208.7, 503.4)">l</text><text xml:space="preserve" font-family="FiraMono-Regular,Fira Mono" font-size="21.0" fill="#000000" transform="matrix(1.00, 0.00, -0.00, -1.00, 221.3, 503.4)">i</text><text xml:space="preserve" font-family="FiraMono-Regular,Fira Mono" font-size="21.0" fill="#000000" transform="matrix(1.00, 0.00, -0.00, -1.00, 233.9, 503.4)">s</text><text xml:space="preserve" font-family="FiraMono-Regular,Fira Mono" font-size="21.0" fill="#000000" transform="matrix(1.00, 0.00, -0.00, -1.00, 246.5, 503.4)">t</text><text xml:space="preserve" font-family="FiraMono-Regular,Fira Mono" font-size="21.0" fill="#000000" transform="matrix(1.00, 0.00, -0.00, -1.00, 259.1, 503.4)">1</text><text xml:space="preserve" font-family="FiraMono-Regular,Fira Mono" font-size="21.0" fill="#000000" transform="matrix(1.00, 0.00, -0.00, -1.00, 271.7, 503.4)">(</text><text xml:space="preserve" font-family="FiraMono-Regular,Fira Mono" font-size="21.0" fill="#000000" transform="matrix(1.00, 0.00, -0.00, -1.00, 284.3, 503.4)">$</text><text xml:space="preserve" font-family="FiraMono-Regular,Fira Mono" font-size="21.0" fill="#000000" transform="matrix(1.00, 0.00, -0.00, -1.00, 296.9, 503.4)">1</text><text xml:space="preserve" font-family="FiraMono-Regular,Fira Mono" font-size="21.0" fill="#000000" transform="matrix(1.00, 0.00, -0.00, -1.00, 309.5, 503.4)">)</text><text xml:space="preserve" font-family="FiraMono-Regular,Fira Mono" font-size="21.0" fill="#000000" transform="matrix(1.00, 0.00, -0.00, -1.00, 322.1, 503.4)">;</text><text xml:space="preserve" font-family="FiraMono-Regular,Fira Mono" font-size="21.0" fill="#000000" transform="matrix(1.00, 0.00, -0.00, -1.00, 334.7, 503.4)"> </text><text xml:space="preserve" font-family="FiraMono-Regular,Fira Mono" font-size="21.0" fill="#000000" transform="matrix(1.00, 0.00, -0.00, -1.00, 53.7, 474.4)"> </text><text xml:space="preserve" font-family="FiraMono-Regular,Fira Mono" font-size="21.0" fill="#000000" transform="matrix(1.00, 0.00, -0.00, -1.00, 99.7, 474.4)">}</text></g></g><g opacity="0.30"><g><clipPath id="clip0x608001eb8120"><path d="M 146.0 554.0 L 234.0 554.0 L 234.0 583.0 L 146.0 583.0 Z M 146.0 554.0 "></path></clipPath><g clip-path="url(#clip0x608001eb8120)"><path d="M 147.0 582.0 L 232.0 582.0 L 232.0 556.0 L 147.0 556.0 Z M 147.0 581.8 " fill="#F5D327"></path></g></g></g></g></svg>